Coordinates
version=1
nRows=10
nColumns=33
inDegrees=yes

Units are S.I. units (second, meters, Newtons, ...)
Angles are in degrees.

endheader
time	ground_thorax_rot_x	ground_thorax_rot_y	ground_thorax_rot_z	ground_thorax_tx	ground_thorax_ty	ground_thorax_tz	clav_prot_r	clav_elev_r	scapula_abduction_r	scapula_elevation_r	scapula_upward_rot_r	scapula_winging_r	shoulder_elv_r	plane_of_elev_r	axial_rot_r	elbow_flexion_r	pro_sup_r	wrist_flex_r	wrist_dev_r	clav_prot_l	clav_elev_l	scapula_abduction_l	scapula_elevation_l	scapula_upward_rot_l	scapula_winging_l	shoulder_elv_l	plane_of_elev_l	axial_rot_l	elbow_flexion_l	pro_sup_l	wrist_flex_l	wrist_dev_l
      3.15000000	     -0.68332892	     10.78453626	      1.07694833	     -0.18614039	      1.00226583	      0.01104108	    -19.41439618	    -12.50362702	    -26.11417481	     -7.48634593	      6.19126545	      4.59726540	     56.61261444	    -40.54906614	     41.39088457	     86.45995900	      8.65725384	      6.72251277	      5.51763464	     -0.52033066	     -4.02382923	     -1.69547691	     -4.10249310	     -4.61090917	     -0.14360406	     50.56760797	    -32.41766656	    -14.58152956	     85.98591513	     13.24159131	      8.13937298	     -5.01883884
      3.16000000	     -0.89568913	     10.93934092	      1.35067012	     -0.18649502	      1.00179467	      0.01097034	    -19.29586432	    -12.44289429	    -26.14281082	     -7.28272035	      5.79153215	      4.65503255	     55.61140384	    -39.53827078	     39.71895906	     85.62286970	      7.91909680	      5.22871546	      7.26337657	     -0.30829352	     -3.98567152	     -1.90006012	     -4.32306853	     -5.05942710	     -0.13392368	     51.08382295	    -31.00385552	    -14.43511158	     85.67347615	     12.46889621	      9.85381532	     -3.24911357
      3.17000000	     -0.80957279	     10.93824448	      1.17038812	     -0.18652274	      1.00202431	      0.01071543	    -19.24103011	    -12.90454865	    -26.00945691	     -7.69310092	      5.73590034	      4.90601839	     55.22841358	    -38.73700795	     38.77033598	     84.75730653	      7.77155477	      4.67985934	      7.66716675	     -0.21049730	     -4.41974446	     -2.10753726	     -3.97571608	     -5.18150438	     -0.19059941	     51.07912848	    -29.85127915	    -13.98717373	     84.92251739	     12.27517935	     10.26263765	     -2.60448711
      3.18000000	     -1.00283121	     11.02598414	      1.47789710	     -0.18684317	      1.00160334	      0.01074685	    -19.13337869	    -12.86680965	    -26.03455913	     -7.51896292	      5.36121976	      4.96257140	     54.25427108	    -37.65645195	     37.21278053	     83.77518748	      7.25885599	      3.34391472	      9.32314004	      0.01465544	     -4.43325606	     -2.30711336	     -4.19339274	     -5.73461265	     -0.21031814	     51.66059623	    -28.39516862	    -13.83241646	     84.24619505	     11.56524660	     11.83634994	     -1.02158520
      3.19000000	     -1.04147343	     11.05361135	      1.51561806	     -0.18702521	      1.00152806	      0.01067588	    -19.03512462	    -13.10647702	    -25.94322334	     -7.66675635	      5.15694777	      5.13100917	     53.60068561	    -36.65786637	     36.00778961	     82.70061514	      7.11921154	      2.46936597	     10.33938869	      0.20455304	     -4.72738638	     -2.50468893	     -4.14431707	     -6.26639751	     -0.29174547	     52.10872418	    -26.97987899	    -13.47596394	     83.38030768	     11.06873667	     12.80751945	      0.09406568
      3.20000000	     -0.96324004	     10.97415529	      1.46006554	     -0.18703337	      1.00185867	      0.01056109	    -18.94805431	    -13.59218276	    -25.75869984	     -8.10045770	      5.10040750	      5.40273169	     53.25190085	    -35.86285720	     35.26087888	     81.63048130	      7.09467777	      1.99759816	     10.65957417	      0.31846361	     -5.18750400	     -2.74223423	     -3.77054543	     -6.38395553	     -0.34464365	     52.08710007	    -25.96092043	    -13.06473156	     82.22645646	     10.97590540	     13.09265388	      0.60536680
      3.21000000	     -1.12644293	     11.08223503	      1.70194113	     -0.18724700	      1.00131241	      0.01049362	    -18.83044254	    -13.53483181	    -25.75353212	     -7.91547960	      4.75053989	      5.44222399	     52.32029119	    -34.61021205	     33.74906576	     80.28127788	      6.84697301	      0.75155761	     12.39302590	      0.57124821	     -5.21497579	     -2.96462655	     -4.02288198	     -7.04831408	     -0.36707089	     52.68867780	    -24.29043970	    -12.87159333	     81.23669031	     10.24789043	     14.66398727	      1.93628496
      3.22000000	     -1.04385317	     10.97520453	      1.58289615	     -0.18725415	      1.00162518	      0.01034651	    -18.69886256	    -14.06441212	    -25.49171983	     -8.38963564	      4.69450680	      5.74230178	     52.00621059	    -33.75638992	     33.04937549	     78.99420721	      6.91220616	      0.30160264	     12.68434084	      0.72678255	     -5.70380827	     -3.26566068	     -3.63624412	     -7.19726920	     -0.41359687	     52.70393459	    -23.24313751	    -12.43475197	     79.93067512	     10.16439522	     14.93796659	      2.43015874
      3.23000000	     -1.18716419	     11.06387015	      1.82999820	     -0.18743426	      1.00108559	      0.01032767	    -18.56514969	    -13.99703689	    -25.45210786	     -8.19908912	      4.35941878	      5.77189076	     51.12930324	    -32.45159673	     31.64442119	     77.46741604	      6.86817520	     -0.73591057	     14.35608767	      1.02891250	     -5.76952146	     -3.55522450	     -3.89602186	     -7.95949757	     -0.43043341	     53.37276230	    -21.56126079	    -12.22269319	     78.67740263	      9.40242485	     16.49687465	      3.58602062
      3.24000000	     -1.09663264	     10.94646368	      1.67725360	     -0.18737912	      1.00136711	      0.01016591	    -18.40182202	    -14.54331267	    -25.13361564	     -8.69153051	      4.31076495	      6.08207356	     50.84605605	    -31.57154049	     30.99762926	     75.99068397	      6.99266216	     -1.16043746	     14.62832496	      1.21772006	     -6.27247975	     -3.91075951	     -3.49831485	     -8.11298875	     -0.46548114	     53.41724329	    -20.51650911	    -11.81287923	     77.20140108	      9.33023824	     16.75627752	      4.04955323
